# xmcd
#
# Track frame offsets: 
#        150
#        23649
#        47010
#        72030
#        91251
#        107806
#        133443
#        160682
#        188624
#        211269
#        236371
#        256536
#        274560
#        281127
#        287694
#
# Disc length: 3923 seconds
#
# Revision: 0
# Processed by: cddbd v1.5.2PL0 Copyright (c) Steve Scherf et al.
# Submitted via: ExactAudioCopyFreeDBPlugin 1.0
#
DISCID=ca0f510f
DTITLE=何莹 - DTSES盛世狂筝
DYEAR=2003
DGENRE=DTSES
TTITLE0=成吉思汗的传说
TTITLE1=神香
TTITLE2=天边
TTITLE3=阿拉里哟
TTITLE4=在那遥远的地方
TTITLE5=在那东山顶上
TTITLE6=天堂
TTITLE7=天路
TTITLE8=蓝色的故乡
TTITLE9=美丽的神话
TTITLE10=乌兰巴托的夜晚
TTITLE11=我和草原有个约定
TTITLE12=讯号 01
TTITLE13=讯号 02
TTITLE14=讯号 03
EXTD=
EXTT0=
EXTT1=
EXTT2=
EXTT3=
EXTT4=
EXTT5=
EXTT6=
EXTT7=
EXTT8=
EXTT9=
EXTT10=
EXTT11=
EXTT12=
EXTT13=
EXTT14=
PLAYORDER=
